<svg xmlns="http://www.w3.org/2000/svg" version="1.1" xmlns:xlink="http://www.w3.org/1999/xlink" xmlns:svgjs="http://svgjs.dev/svgjs" width="1440" height="560" preserveAspectRatio="none" viewBox="0 0 1440 560"><g mask="url(&quot;#SvgjsMask1029&quot;)" fill="none"><rect width="1440" height="560" x="0" y="0" fill="rgba(90, 150, 227, 0.13)"></rect><path d="M0,441.252C80.832,432.48,142.43,371.796,208.362,324.217C270.705,279.228,334.138,236.467,374.474,171.017C418.489,99.598,455.018,19.195,447.858,-64.392C440.526,-149.985,404.692,-240.073,334.96,-290.245C267.859,-338.524,176.36,-317.077,93.723,-319.19C31.474,-320.781,-26.204,-304.032,-88.402,-301.068C-175.363,-296.924,-272.451,-347.516,-344.277,-298.318C-415.273,-249.689,-432.044,-148.684,-436.352,-62.738C-440.451,19.035,-401.35,93.281,-367.645,167.898C-333.801,242.822,-305.578,323.775,-239.603,372.829C-171.571,423.413,-84.282,450.398,0,441.252" fill="rgba(76, 141, 225, 0.13)"></path><path d="M1440 885.654C1513.274 890.586 1587.905 923.929 1655.63 895.527 1727.069 865.567 1778.04 799.5219999999999 1811.726 729.762 1845.848 659.098 1863.127 578.191 1845.827 501.651 1829.104 427.663 1769.888 374.48699999999997 1718.76 318.453 1668.922 263.832 1625.325 186.84699999999998 1551.763 179.37 1477.671 171.839 1428.354 256.491 1358.318 281.816 1294.638 304.84299999999996 1211.883 273.123 1162.976 319.957 1114.067 366.794 1130.94 447.33299999999997 1116.41 513.475 1100.482 585.977 1048.62 657.441 1073.469 727.389 1098.467 797.7570000000001 1173.692 838.102 1242.25 867.7049999999999 1304.271 894.485 1372.596 881.117 1440 885.654" fill="rgba(104, 159, 229, 0.13)"></path></g><defs><mask id="SvgjsMask1029"><rect width="1440" height="560" fill="#ffffff"></rect></mask></defs></svg>